Coordinates
version=1
nRows=4
nColumns=107
inDegrees=yes

Units are S.I. units (second, meters, Newtons, ...)
If the header above contains a line with 'inDegrees', this indicates whether rotational values are in degrees (yes) or radians (no).

endheader
time	sternoclavicular_r2	sternoclavicular_r3	unrotscap_r3	unrotscap_r2	acromioclavicular_r2	acromioclavicular_r3	acromioclavicular_r1	unrothum_r1	unrothum_r3	unrothum_r2	elv_angle	shoulder_elv	shoulder1_r2	shoulder_rot	elbow_flexion	pro_sup	deviation	flexion	proximal_distal_r1	proximal_distal_r3	cmc_flexion	cmc_abduction	mp_flexion	ip_flexion	mcp2_flexion	mcp2_abduction	pm2_flexion	md2_flexion	mcp3_flexion	mcp3_abduction	pm3_flexion	md3_flexion	mcp4_flexion	mcp4_abduction	pm4_flexion	md4_flexion	mcp5_flexion	mcp5_abduction	pm5_flexion	md5_flexion	bicpt_tx	bicpt_ty	bicpt_tz	bicpt2_tx	bicpt2_ty	bicpt2_tz	ptpt_tx	ptpt_ty	ptpt_tz	FCUpt_tx	FCUpt_ty	FCUpt_tz	EDCpt_tx	EDCpt_ty	EDCpt_tz	APLpt_tx	APLpt_ty	APLpt_tz	FPLpt_tx	FPLpt_ty	FPLpt_tz	FPLpt2_tx	FPLpt2_ty	FPLpt2_tz	PEC1pt2_tx	PEC1pt2_ty	PEC1pt2_tz	PEC1pt3_tx	PEC1pt3_ty	PEC1pt3_tz	PEC2pt2_tx	PEC2pt2_ty	PEC2pt2_tz	PEC2pt3_tx	PEC2pt3_ty	PEC2pt3_tz	PEC3pt2_tx	PEC3pt2_ty	PEC3pt2_tz	PEC3pt3_tx	PEC3pt3_ty	PEC3pt3_tz	DELT2pt2a_tx	DELT2pt2a_ty	DELT2pt2a_tz	DELT2pt2_tx	DELT2pt2_ty	DELT2pt2_tz	LAT1pt2_tx	LAT1pt2_ty	LAT1pt2_tz	LAT1pt3_tx	LAT1pt3_ty	LAT1pt3_tz	LAT2pt2_tx	LAT2pt2_ty	LAT2pt2_tz	LAT2pt3_tx	LAT2pt3_ty	LAT2pt3_tz	LAT3pt2_tx	LAT3pt2_ty	LAT3pt2_tz	LAT3pt3_tx	LAT3pt3_ty	LAT3pt3_tz
      0.93333333	     -0.31307049	      0.13260189	     -0.13260189	      0.31307049	     -0.06339041	      0.51229897	      0.23027486	     -0.23027486	     -0.51229897	      0.06339041	    101.36669118	     74.12222245	     -1.76918251	    -32.18488656	     27.78469999	     15.54754333	     -0.04383443	     -0.80174516	     -0.06106222	     -0.40087258	    -11.34622441	     -2.49035183	    -33.81328932	    -15.63920775	      7.20486641	     13.73655827	      8.00595168	    -26.81343125	     57.97784789	      8.67738845	     87.41560230	     69.54998959	     38.01399175	     -5.76500510	     92.62979189	     43.14537359	    -17.19959814	    -13.05751811	    -12.35298401	      5.01160788	      0.00081903	     -0.03078455	     -0.00481295	      0.01584478	     -0.01774785	     -0.00966120	      0.00640121	     -0.06564283	     -0.00130244	      0.00541067	     -0.18391884	      0.00001231	     -0.00186570	      0.00047782	      0.00015993	      0.00028199	      0.00011279	      0.00056397	      0.00036094	      0.00108283	      0.00060909	     -0.00174100	      0.00035518	      0.00042621	      0.00242956	      0.00852406	      0.00592978	     -0.00794756	      0.01918944	     -0.01820114	      0.00242956	      0.00852406	      0.00592978	      0.00053533	      0.01778935	     -0.00934764	      0.00386977	      0.00474012	      0.01577338	      0.00000000	      0.00734494	      0.00000000	     -0.00695926	     -0.03216084	     -0.00605369	      0.01981465	     -0.00083233	     -0.00859107	     -0.00086476	      0.01449502	     -0.00592978	      0.00238838	      0.02091896	     -0.01729520	     -0.00580625	      0.01255961	     -0.00531210	     -0.01210664	      0.02651931	     -0.02969009	     -0.02273083	      0.01404206	     -0.00712398	     -0.01507153	      0.03063721	     -0.03710232
      0.96666667	     -0.31457509	      0.13323916	     -0.13323916	      0.31457509	     -0.06369506	      0.51476104	      0.23138155	     -0.23138155	     -0.51476104	      0.06369506	    100.87481033	     74.47844868	     -1.76059757	    -29.79444156	     27.69858042	     12.55380982	     -0.03399828	     -0.80643832	     -0.04708582	     -0.40321916	    -11.15363574	     -0.52521020	    -33.13607137	    -15.13399605	      7.25100713	     13.68081081	      8.42864862	    -26.60779408	     58.81168133	      8.74976275	     87.48277236	     70.40222287	     38.95296929	     -5.52865645	     93.07827303	     42.88220829	    -14.78467971	    -13.00235358	    -11.53417920	      4.99218274	      0.00081618	     -0.03077468	     -0.00481136	      0.01566146	     -0.01772446	     -0.00987186	      0.00662242	     -0.06549979	     -0.00106128	      0.00513324	     -0.18395906	      0.00009206	     -0.00150645	      0.00038001	      0.00013932	      0.00028047	      0.00011219	      0.00056094	      0.00035900	      0.00107700	      0.00060581	     -0.00167918	      0.00034795	      0.00041754	      0.00244124	      0.00856503	      0.00595828	     -0.00798575	      0.01928166	     -0.01828861	      0.00244124	      0.00856503	      0.00595828	      0.00053790	      0.01787484	     -0.00939257	      0.00388350	      0.00476290	      0.01580796	      0.00000000	      0.00741616	      0.00000000	     -0.00699270	     -0.03231540	     -0.00611285	      0.01878661	     -0.00075008	     -0.00739899	     -0.00086892	      0.01456469	     -0.00595828	      0.00239986	      0.02101949	     -0.01737832	     -0.00583415	      0.01261997	     -0.00533763	     -0.01216482	      0.02664676	     -0.02983278	     -0.02284008	      0.01410954	     -0.00715821	     -0.01514396	      0.03078445	     -0.03728063
      1.00000000	     -0.31408636	      0.13303216	     -0.13303216	      0.31408636	     -0.06359610	      0.51396131	      0.23102207	     -0.23102207	     -0.51396131	      0.06359610	    101.10264052	     74.36273834	     -1.76457396	    -30.51944160	     27.56196468	     11.53579053	     -0.03920809	     -0.80655456	     -0.05446907	     -0.40327728	    -10.66992681	      1.43177050	    -31.73889779	    -14.41663393	      7.64596198	     13.49365372	      9.16240383	    -26.14940795	     60.04438896	      8.80919609	     87.67229072	     70.59935793	     40.11386552	     -4.95756708	     94.65961353	     43.01881387	    -11.32350850	    -12.60278933	    -10.40579243	      4.98060882	      0.00081166	     -0.03075902	     -0.00480884	      0.01559445	     -0.01768734	     -0.00994063	      0.00669764	     -0.06545115	     -0.00097927	      0.00503953	     -0.18397216	      0.00012072	     -0.00138429	      0.00034738	      0.00013121	      0.00028043	      0.00011217	      0.00056086	      0.00035895	      0.00107685	      0.00060573	     -0.00153031	      0.00032999	      0.00039599	      0.00243745	      0.00855172	      0.00594902	     -0.00797334	      0.01925170	     -0.01826020	      0.00243745	      0.00855172	      0.00594902	      0.00053706	      0.01784707	     -0.00937798	      0.00387904	      0.00475550	      0.01579676	      0.00000000	      0.00739299	      0.00000000	     -0.00698184	     -0.03226519	     -0.00609360	      0.01910648	     -0.00077486	     -0.00775338	     -0.00086757	      0.01454206	     -0.00594902	      0.00239613	      0.02098683	     -0.01735132	     -0.00582509	      0.01260036	     -0.00532933	     -0.01214592	      0.02660536	     -0.02978643	     -0.02280459	      0.01408762	     -0.00714709	     -0.01512044	      0.03073662	     -0.03722271
      1.03333333	     -0.31330474	      0.13270110	     -0.13270110	      0.31330474	     -0.06343784	      0.51268228	      0.23044715	     -0.23044715	     -0.51268228	      0.06343784	    101.43843531	     74.17768134	     -1.77043468	    -31.74369498	     27.40274419	      9.40683244	     -0.05560016	     -0.78561318	     -0.07798734	     -0.39280659	     -9.63989776	      1.80644461	    -30.84141995	    -14.05431661	      8.44355439	     13.05091946	      9.74890062	    -25.94692900	     60.13722710	      8.86848526	     87.74997869	     70.62687184	     40.49587620	     -4.56549027	     95.18870892	     43.09514216	     -8.51306869	    -11.64519534	     -9.22357011	      5.19800556	      0.00080640	     -0.03074077	     -0.00480590	      0.01544665	     -0.01764409	     -0.01007976	      0.00685494	     -0.06534944	     -0.00080777	      0.00484459	     -0.18399859	      0.00018318	     -0.00112882	      0.00028018	      0.00011242	      0.00028693	      0.00011477	      0.00057385	      0.00036727	      0.00110180	      0.00061976	     -0.00124191	      0.00029262	      0.00035115	      0.00243138	      0.00853044	      0.00593422	     -0.00795350	      0.01920379	     -0.01821476	      0.00243138	      0.00853044	      0.00593422	      0.00053573	      0.01780266	     -0.00935464	      0.00387191	      0.00474367	      0.01577879	      0.00000000	      0.00735600	      0.00000000	     -0.00696447	     -0.03218490	     -0.00606288	      0.01963066	     -0.00081704	     -0.00836602	     -0.00086541	      0.01450587	     -0.00593422	      0.00239017	      0.02093461	     -0.01730814	     -0.00581059	      0.01256901	     -0.00531607	     -0.01211570	      0.02653915	     -0.02971231	     -0.02274784	      0.01405256	     -0.00712931	     -0.01508281	      0.03066013	     -0.03713008
